<svg width="62" height="64" viewBox="0 0 62 64" fill="none" xmlns="http://www.w3.org/2000/svg">
<circle cx="30" cy="33.5532" r="30" fill="#2191FB"/>
<path d="M18.6064 51.84C17.7797 51.84 17.0997 51.7867 16.5664 51.68C16.0064 51.5733 15.5264 51.44 15.1264 51.28L16.1664 46.96C16.4331 47.04 16.6864 47.1067 16.9264 47.16C17.1664 47.2133 17.4331 47.24 17.7264 47.24C18.4997 47.24 19.0331 46.9867 19.3264 46.48C19.6464 45.9733 19.8064 45.16 19.8064 44.04V24.16H25.6864V43.88C25.6864 44.9733 25.5664 46 25.3264 46.96C25.1131 47.92 24.7264 48.76 24.1664 49.48C23.6331 50.2 22.9131 50.7733 22.0064 51.2C21.0997 51.6267 19.9664 51.84 18.6064 51.84ZM22.7664 21.24C21.7797 21.24 20.9664 20.96 20.3264 20.4C19.6864 19.8133 19.3664 19.0667 19.3664 18.16C19.3664 17.2533 19.6864 16.52 20.3264 15.96C20.9664 15.4 21.7797 15.12 22.7664 15.12C23.7531 15.12 24.5664 15.4 25.2064 15.96C25.8464 16.52 26.1664 17.2533 26.1664 18.16C26.1664 19.0667 25.8464 19.8133 25.2064 20.4C24.5664 20.96 23.7531 21.24 22.7664 21.24ZM37.5392 44.48C36.2326 44.48 34.8859 44.2267 33.4992 43.72C32.1392 43.2133 30.9526 42.5467 29.9392 41.72L32.5792 38.04C33.4859 38.7333 34.3526 39.2533 35.1792 39.6C36.0059 39.9467 36.8459 40.12 37.6992 40.12C38.5792 40.12 39.2192 39.9733 39.6192 39.68C40.0192 39.3867 40.2192 38.9733 40.2192 38.44C40.2192 38.12 40.0992 37.84 39.8592 37.6C39.6459 37.3333 39.3392 37.0933 38.9392 36.88C38.5659 36.6667 38.1392 36.48 37.6592 36.32C37.1792 36.1333 36.6859 35.9333 36.1792 35.72C35.5659 35.48 34.9526 35.2 34.3392 34.88C33.7259 34.56 33.1659 34.1733 32.6592 33.72C32.1526 33.24 31.7392 32.6933 31.4192 32.08C31.0992 31.44 30.9392 30.7067 30.9392 29.88C30.9392 28.9733 31.1126 28.1333 31.4592 27.36C31.8326 26.5867 32.3526 25.9333 33.0192 25.4C33.6859 24.8667 34.4859 24.4533 35.4192 24.16C36.3526 23.84 37.3926 23.68 38.5392 23.68C40.0592 23.68 41.3926 23.9467 42.5392 24.48C43.6859 24.9867 44.6859 25.56 45.5392 26.2L42.8992 29.72C42.1792 29.1867 41.4726 28.7733 40.7792 28.48C40.0859 28.1867 39.3926 28.04 38.6992 28.04C37.2059 28.04 36.4592 28.56 36.4592 29.6C36.4592 29.92 36.5659 30.2 36.7792 30.44C36.9926 30.6533 37.2726 30.8533 37.6192 31.04C37.9926 31.2267 38.4059 31.4133 38.8592 31.6C39.3392 31.76 39.8326 31.9333 40.3392 32.12C40.9792 32.36 41.6059 32.64 42.2192 32.96C42.8592 33.2533 43.4326 33.6267 43.9392 34.08C44.4726 34.5333 44.8992 35.0933 45.2192 35.76C45.5392 36.4 45.6992 37.1733 45.6992 38.08C45.6992 38.9867 45.5259 39.8267 45.1792 40.6C44.8326 41.3733 44.3126 42.0533 43.6192 42.64C42.9259 43.2 42.0726 43.6533 41.0592 44C40.0459 44.32 38.8726 44.48 37.5392 44.48Z" fill="white"/>
</svg>
