<svg width="24" height="28" viewBox="0 0 24 28" fill="none" xmlns="http://www.w3.org/2000/svg">
<path d="M3.08 27.88C2.46 27.88 1.95 27.84 1.55 27.76C1.13 27.68 0.77 27.58 0.47 27.46L1.25 24.22C1.45 24.28 1.64 24.33 1.82 24.37C2 24.41 2.2 24.43 2.42 24.43C3 24.43 3.4 24.24 3.62 23.86C3.86 23.48 3.98 22.87 3.98 22.03V7.12H8.39V21.91C8.39 22.73 8.3 23.5 8.12 24.22C7.96 24.94 7.67 25.57 7.25 26.11C6.85 26.65 6.31 27.08 5.63 27.4C4.95 27.72 4.1 27.88 3.08 27.88ZM6.2 4.93C5.46 4.93 4.85 4.72 4.37 4.3C3.89 3.86 3.65 3.3 3.65 2.62C3.65 1.94 3.89 1.39 4.37 0.969999C4.85 0.549998 5.46 0.339998 6.2 0.339998C6.94 0.339998 7.55 0.549998 8.03 0.969999C8.51 1.39 8.75 1.94 8.75 2.62C8.75 3.3 8.51 3.86 8.03 4.3C7.55 4.72 6.94 4.93 6.2 4.93ZM17.2796 22.36C16.2996 22.36 15.2896 22.17 14.2496 21.79C13.2296 21.41 12.3396 20.91 11.5796 20.29L13.5596 17.53C14.2396 18.05 14.8896 18.44 15.5096 18.7C16.1296 18.96 16.7596 19.09 17.3996 19.09C18.0596 19.09 18.5396 18.98 18.8396 18.76C19.1396 18.54 19.2896 18.23 19.2896 17.83C19.2896 17.59 19.1996 17.38 19.0196 17.2C18.8596 17 18.6296 16.82 18.3296 16.66C18.0496 16.5 17.7296 16.36 17.3696 16.24C17.0096 16.1 16.6396 15.95 16.2596 15.79C15.7996 15.61 15.3396 15.4 14.8796 15.16C14.4196 14.92 13.9996 14.63 13.6196 14.29C13.2396 13.93 12.9296 13.52 12.6896 13.06C12.4496 12.58 12.3296 12.03 12.3296 11.41C12.3296 10.73 12.4596 10.1 12.7196 9.52C12.9996 8.94 13.3896 8.45 13.8896 8.05C14.3896 7.65 14.9896 7.34 15.6896 7.12C16.3896 6.88 17.1696 6.76 18.0296 6.76C19.1696 6.76 20.1696 6.96 21.0296 7.36C21.8896 7.74 22.6396 8.17 23.2796 8.65L21.2996 11.29C20.7596 10.89 20.2296 10.58 19.7096 10.36C19.1896 10.14 18.6696 10.03 18.1496 10.03C17.0296 10.03 16.4696 10.42 16.4696 11.2C16.4696 11.44 16.5496 11.65 16.7096 11.83C16.8696 11.99 17.0796 12.14 17.3396 12.28C17.6196 12.42 17.9296 12.56 18.2696 12.7C18.6296 12.82 18.9996 12.95 19.3796 13.09C19.8596 13.27 20.3296 13.48 20.7896 13.72C21.2696 13.94 21.6996 14.22 22.0796 14.56C22.4796 14.9 22.7996 15.32 23.0396 15.82C23.2796 16.3 23.3996 16.88 23.3996 17.56C23.3996 18.24 23.2696 18.87 23.0096 19.45C22.7496 20.03 22.3596 20.54 21.8396 20.98C21.3196 21.4 20.6796 21.74 19.9196 22C19.1596 22.24 18.2796 22.36 17.2796 22.36Z" fill="black"/>
</svg>
