<svg width="47" height="47" viewBox="0 0 47 47" fill="none" xmlns="http://www.w3.org/2000/svg">
<circle cx="22.5" cy="24.5" r="22.5" fill="#33D3FF"/>
<path d="M14.4548 38.88C13.8348 38.88 13.3248 38.84 12.9248 38.76C12.5048 38.68 12.1448 38.58 11.8448 38.46L12.6248 35.22C12.8248 35.28 13.0148 35.33 13.1948 35.37C13.3748 35.41 13.5748 35.43 13.7948 35.43C14.3748 35.43 14.7748 35.24 14.9948 34.86C15.2348 34.48 15.3548 33.87 15.3548 33.03V18.12H19.7648V32.91C19.7648 33.73 19.6748 34.5 19.4948 35.22C19.3348 35.94 19.0448 36.57 18.6248 37.11C18.2248 37.65 17.6848 38.08 17.0048 38.4C16.3248 38.72 15.4748 38.88 14.4548 38.88ZM17.5748 15.93C16.8348 15.93 16.2248 15.72 15.7448 15.3C15.2648 14.86 15.0248 14.3 15.0248 13.62C15.0248 12.94 15.2648 12.39 15.7448 11.97C16.2248 11.55 16.8348 11.34 17.5748 11.34C18.3148 11.34 18.9248 11.55 19.4048 11.97C19.8848 12.39 20.1248 12.94 20.1248 13.62C20.1248 14.3 19.8848 14.86 19.4048 15.3C18.9248 15.72 18.3148 15.93 17.5748 15.93ZM28.6544 33.36C27.6744 33.36 26.6644 33.17 25.6244 32.79C24.6044 32.41 23.7144 31.91 22.9544 31.29L24.9344 28.53C25.6144 29.05 26.2644 29.44 26.8844 29.7C27.5044 29.96 28.1344 30.09 28.7744 30.09C29.4344 30.09 29.9144 29.98 30.2144 29.76C30.5144 29.54 30.6644 29.23 30.6644 28.83C30.6644 28.59 30.5744 28.38 30.3944 28.2C30.2344 28 30.0044 27.82 29.7044 27.66C29.4244 27.5 29.1044 27.36 28.7444 27.24C28.3844 27.1 28.0144 26.95 27.6344 26.79C27.1744 26.61 26.7144 26.4 26.2544 26.16C25.7944 25.92 25.3744 25.63 24.9944 25.29C24.6144 24.93 24.3044 24.52 24.0644 24.06C23.8244 23.58 23.7044 23.03 23.7044 22.41C23.7044 21.73 23.8344 21.1 24.0944 20.52C24.3744 19.94 24.7644 19.45 25.2644 19.05C25.7644 18.65 26.3644 18.34 27.0644 18.12C27.7644 17.88 28.5444 17.76 29.4044 17.76C30.5444 17.76 31.5444 17.96 32.4044 18.36C33.2644 18.74 34.0144 19.17 34.6544 19.65L32.6744 22.29C32.1344 21.89 31.6044 21.58 31.0844 21.36C30.5644 21.14 30.0444 21.03 29.5244 21.03C28.4044 21.03 27.8444 21.42 27.8444 22.2C27.8444 22.44 27.9244 22.65 28.0844 22.83C28.2444 22.99 28.4544 23.14 28.7144 23.28C28.9944 23.42 29.3044 23.56 29.6444 23.7C30.0044 23.82 30.3744 23.95 30.7544 24.09C31.2344 24.27 31.7044 24.48 32.1644 24.72C32.6444 24.94 33.0744 25.22 33.4544 25.56C33.8544 25.9 34.1744 26.32 34.4144 26.82C34.6544 27.3 34.7744 27.88 34.7744 28.56C34.7744 29.24 34.6444 29.87 34.3844 30.45C34.1244 31.03 33.7344 31.54 33.2144 31.98C32.6944 32.4 32.0544 32.74 31.2944 33C30.5344 33.24 29.6544 33.36 28.6544 33.36Z" fill="black"/>
</svg>
