<svg width="50" height="50" viewBox="0 0 50 50" fill="none" xmlns="http://www.w3.org/2000/svg">
<g id="24 / basic / book">
<path id="icon" fill-rule="evenodd" clip-rule="evenodd" d="M43.75 45.8332H12.5C9.04822 45.8332 6.25 43.035 6.25 39.5832V10.4165C6.25 6.96472 9.04822 4.1665 12.5 4.1665H43.75V37.4998C42.5994 37.4998 41.6667 38.4326 41.6667 39.5832C41.6667 40.7338 42.5994 41.6665 43.75 41.6665V45.8332ZM37.5 39.5832C37.5 38.8527 37.6253 38.1515 37.8556 37.4999H12.5C11.3494 37.4999 10.4167 38.4326 10.4167 39.5832C10.4167 40.7338 11.3494 41.6665 12.5 41.6665H37.8556C37.6253 41.0149 37.5 40.3137 37.5 39.5832ZM12.5 8.33313H39.5833V33.3331H12.5C11.7695 33.3331 11.0683 33.4585 10.4167 33.6888V10.4165C10.4167 9.26587 11.3494 8.33313 12.5 8.33313Z" fill="white"/>
</g>
</svg>
