<svg width="50" height="50" viewBox="0 0 50 50" fill="none" xmlns="http://www.w3.org/2000/svg">
<g id="24 / food / bread">
<path id="icon" fill-rule="evenodd" clip-rule="evenodd" d="M43.75 41.6665V19.7183C46.2408 18.2774 47.9166 15.5843 47.9166 12.4998C47.9166 7.89746 44.1857 4.1665 39.5833 4.1665H10.4166C5.81427 4.1665 2.08331 7.89746 2.08331 12.4998C2.08331 15.5843 3.75914 18.2774 6.24998 19.7183V41.6665C6.24998 43.9677 8.11546 45.8332 10.4166 45.8332H39.5833C41.8845 45.8332 43.75 43.9677 43.75 41.6665ZM39.5833 41.6665H10.4166V17.315L8.33633 16.1116C7.05315 15.3693 6.24997 14.0067 6.24997 12.4998C6.24997 10.1986 8.11545 8.33312 10.4166 8.33312H39.5833C41.8845 8.33312 43.75 10.1986 43.75 12.4998C43.75 14.0067 42.9468 15.3693 41.6636 16.1116L39.5833 17.315V41.6665Z" fill="white"/>
</g>
</svg>
