<svg width="30" height="30" viewBox="0 0 30 30" fill="none" xmlns="http://www.w3.org/2000/svg">
<g id="24 / maps / map-pin-location">
<path id="icon" fill-rule="evenodd" clip-rule="evenodd" d="M16.25 14.875V23.75H13.75V14.875C10.8972 14.2959 8.74999 11.7737 8.74999 8.75C8.74999 5.29822 11.5482 2.5 15 2.5C18.4518 2.5 21.25 5.29822 21.25 8.75C21.25 11.7737 19.1028 14.2959 16.25 14.875ZM11.25 17.6966V20.2304C7.58398 20.6881 5 21.7334 5 22.5C5 23.5087 9.47393 25 15 25C20.5261 25 25 23.5087 25 22.5C25 21.7334 22.416 20.6881 18.75 20.2304V17.6966C23.8198 18.2521 27.5 19.9598 27.5 22.5C27.5 25.6334 21.9003 27.5 15 27.5C8.09967 27.5 2.5 25.6334 2.5 22.5C2.5 19.9598 6.18016 18.2521 11.25 17.6966ZM18.75 8.75001C18.75 10.8211 17.0711 12.5 15 12.5C12.9289 12.5 11.25 10.8211 11.25 8.75001C11.25 6.67894 12.9289 5.00001 15 5.00001C17.0711 5.00001 18.75 6.67894 18.75 8.75001Z" fill="white"/>
</g>
</svg>
