<svg width="50" height="50" viewBox="0 0 50 50" fill="none" xmlns="http://www.w3.org/2000/svg">
<g id="24 / music / music-library">
<path id="icon" fill-rule="evenodd" clip-rule="evenodd" d="M37.5 43.75C39.8012 43.75 41.6666 41.8845 41.6666 39.5833H43.75C46.0512 39.5833 47.9166 37.7179 47.9166 35.4167V14.5833C47.9166 12.2821 46.0512 10.4167 43.75 10.4167H41.6666C41.6666 8.11548 39.8012 6.25 37.5 6.25H12.5C10.1988 6.25 8.33331 8.11548 8.33331 10.4167H6.24998C3.94879 10.4167 2.08331 12.2821 2.08331 14.5833V35.4167C2.08331 37.7179 3.94879 39.5833 6.24998 39.5833H8.33331C8.33331 41.8845 10.1988 43.75 12.5 43.75H37.5ZM37.5 10.4166V39.5833H12.5V10.4166H37.5ZM25 25.2926V14.8572L34.4889 21.1832L32.1777 24.6501L29.1667 22.6427V30.2083C29.1667 33.2363 26.2595 35.4167 22.9167 35.4167C19.5738 35.4167 16.6667 33.2363 16.6667 30.2083C16.6667 27.1804 19.5738 25 22.9167 25C23.6398 25 24.3426 25.102 25 25.2926ZM6.24997 14.5834H8.33331V35.4167H6.24997V14.5834ZM41.6666 14.5834V35.4167H43.75V14.5834H41.6666ZM25 30.2083C25 30.6321 24.1762 31.2499 22.9166 31.2499C21.6571 31.2499 20.8333 30.6321 20.8333 30.2083C20.8333 29.7845 21.6571 29.1666 22.9166 29.1666C24.1762 29.1666 25 29.7845 25 30.2083Z" fill="white"/>
</g>
</svg>
