<svg width="114" height="140" viewBox="0 0 114 140" fill="none" xmlns="http://www.w3.org/2000/svg">
<path fill-rule="evenodd" clip-rule="evenodd" d="M57 139.797L61.1108 136.208C95.6793 106.023 113.25 79.6672 113.25 56.5C113.25 23.6916 87.6434 0.25 57 0.25C26.3566 0.25 0.75 23.6916 0.75 56.5C0.75 79.6672 18.3207 106.023 52.8892 136.208L57 139.797ZM57 123.146C27.6663 96.7097 13.25 74.3077 13.25 56.5C13.25 30.8538 33.0257 12.75 57 12.75C80.9743 12.75 100.75 30.8538 100.75 56.5C100.75 74.3077 86.3337 96.7097 57 123.146ZM57 25.25C74.2589 25.25 88.25 39.2411 88.25 56.5C88.25 73.7589 74.2589 87.75 57 87.75C39.7411 87.75 25.75 73.7589 25.75 56.5C25.75 39.2411 39.7411 25.25 57 25.25ZM38.25 56.5C38.25 46.1446 46.6447 37.75 57 37.75C67.3553 37.75 75.75 46.1446 75.75 56.5C75.75 66.8553 67.3553 75.25 57 75.25C46.6447 75.25 38.25 66.8553 38.25 56.5Z" fill="white"/>
</svg>
