<svg width="40" height="40" viewBox="0 0 40 40" fill="none" xmlns="http://www.w3.org/2000/svg">
<path fill-rule="evenodd" clip-rule="evenodd" d="M6.66668 3.33325H33.3333C35.1743 3.33325 36.6667 4.82564 36.6667 6.66659V33.3333C36.6667 35.1742 35.1743 36.6666 33.3333 36.6666H6.66668C4.82573 36.6666 3.33334 35.1742 3.33334 33.3333V6.66659C3.33334 4.82564 4.82573 3.33325 6.66668 3.33325ZM6.66669 6.66655V33.3332H33.3333V6.66655H6.66669ZM18.5551 20.0073H21.6667V30H25V20.0073H28.304V16.6739H25V15C25 14.0795 25.7462 13.3333 26.6667 13.3333H28.3333V9.99995H26.6667C23.9052 9.99995 21.6667 12.2385 21.6667 15V16.6739H18.5551V20.0073Z" fill="#33D3FF"/>
</svg>
