<svg width="40" height="40" viewBox="0 0 40 40" fill="none" xmlns="http://www.w3.org/2000/svg">
<path fill-rule="evenodd" clip-rule="evenodd" d="M16.6954 33.3393C16.704 33.5441 16.682 33.7439 16.6388 33.9461C16.5631 34.3014 16.4168 34.6774 16.2097 35.0248C15.621 36.0125 14.6209 36.6715 13.3333 36.6715C10.3002 36.6715 9.10973 35.1834 7.61921 31.4571C6.60973 28.9334 6.1335 28.3381 5 28.3381L5 25.0048C8.03317 25.0048 9.22361 26.4928 10.7141 30.2192C11.7236 32.7428 12.1998 33.3381 13.3333 33.3381C13.3333 32.8545 13.3267 32.4261 13.3128 31.846C13.2801 30.4864 13.2763 30.2088 13.3357 29.8453C13.3594 29.0518 13.5642 28.4888 13.975 27.93C10.2553 27.1203 7.74653 25.448 6.30662 22.7356L5.76723 21.4671C5.24174 19.9569 5 18.2458 5 16.2696C5 13.9937 5.69391 11.9587 6.99003 10.2577C6.58571 8.64079 6.64108 6.66529 7.53385 4.43426L7.82557 3.70525L8.57345 3.46602C8.67358 3.43399 8.79531 3.40506 8.93832 3.38262C10.3946 3.15405 12.4668 3.69938 15.1759 5.43466C16.7729 5.06445 18.4547 4.87754 20.148 4.87754C21.6611 4.87754 23.1658 5.03008 24.6027 5.33082C27.2384 3.68026 29.2537 3.16258 30.6708 3.38291C30.8122 3.40489 30.9327 3.43326 31.032 3.46475L31.7845 3.70339L32.0766 4.43685C32.8576 6.39808 32.9916 8.20553 32.7074 9.78707C34.1974 11.5749 35 13.7729 35 16.2696C35 18.3745 34.8492 19.9573 34.4157 21.4971L33.9582 22.7527C32.7605 25.4622 30.1191 27.1532 26.0459 27.9587C26.4693 28.5449 26.6667 29.1399 26.6667 30.0048V31.6715C26.6667 32.4791 26.6667 32.504 26.6648 33.3381C26.6686 33.398 26.6736 33.4274 26.6791 33.4456C26.6777 33.4461 26.6667 36.6715 26.6667 36.6715C25.247 36.6715 24.1914 35.9791 23.6723 34.887C23.4031 34.3208 23.3227 33.7801 23.3333 33.3145V30.0048C23.3333 29.8651 23.3285 29.857 22.9882 29.5166C22.0785 28.607 21.6667 27.9206 21.6667 26.6715V25.1638L23.1668 25.0131C27.6322 24.5647 30.0609 23.3246 30.8661 21.513L31.2424 20.4843C31.5419 19.4086 31.6667 18.0987 31.6667 16.2696C31.6667 14.3261 30.9882 12.7207 29.705 11.438L28.9997 10.733L29.2875 9.77818C29.5433 8.92994 29.6041 7.92623 29.3335 6.78141C29.2885 6.7928 29.2418 6.80522 29.1933 6.81872C28.3009 7.06717 27.1867 7.60028 25.8441 8.49774L25.2317 8.90707L24.5168 8.72979C23.134 8.38691 21.6481 8.21088 20.148 8.21088C18.4798 8.21088 16.8308 8.42312 15.3074 8.83841L14.564 9.04109L13.928 8.60602C12.5394 7.65604 11.3858 7.0911 10.4607 6.82719C10.3946 6.80835 10.3317 6.79149 10.2719 6.77646C9.9492 8.10143 10.0769 9.19001 10.4037 10.0069L10.7956 10.9863L10.0781 11.7596C8.93483 12.9919 8.33333 14.4915 8.33333 16.2696C8.33333 17.8976 8.52391 19.2465 8.87314 20.2626L9.30928 21.295C10.3996 23.3409 12.7153 24.5717 16.8443 25.0143L18.3333 25.1739V26.6715C18.3333 27.9206 17.9215 28.607 17.0118 29.5166C16.6715 29.857 16.6667 29.8651 16.6667 30.0048L16.6379 30.3129C16.6189 30.414 16.6189 30.6749 16.6451 31.766C16.6572 32.2678 16.6641 32.6649 16.6661 33.08C16.686 33.1659 16.689 33.2213 16.6954 33.3393Z" fill="black"/>
</svg>
