<svg width="40" height="40" viewBox="0 0 40 40" fill="none" xmlns="http://www.w3.org/2000/svg">
<path fill-rule="evenodd" clip-rule="evenodd" d="M26.6667 3.33325H13.3333C7.81047 3.33325 3.33332 7.8104 3.33332 13.3333V26.6666C3.33332 32.1894 7.81047 36.6666 13.3333 36.6666H26.6667C32.1895 36.6666 36.6667 32.1894 36.6667 26.6666V13.3333C36.6667 7.8104 32.1895 3.33325 26.6667 3.33325ZM6.66663 13.3332C6.66663 9.65132 9.6514 6.66655 13.3333 6.66655H26.6666C30.3485 6.66655 33.3333 9.65132 33.3333 13.3332V26.6665C33.3333 30.3484 30.3485 33.3332 26.6666 33.3332H13.3333C9.6514 33.3332 6.66663 30.3484 6.66663 26.6665V13.3332ZM20 28.3332C15.3976 28.3332 11.6666 24.6023 11.6666 19.9999C11.6666 15.3975 15.3976 11.6665 20 11.6665C24.6023 11.6665 28.3333 15.3975 28.3333 19.9999C28.3333 24.6023 24.6023 28.3332 20 28.3332ZM20 25C22.7614 25 25 22.7614 25 20C25 17.2385 22.7614 15 20 15C17.2386 15 15 17.2385 15 20C15 22.7614 17.2386 25 20 25ZM30 11.6666C30 12.5871 29.2538 13.3333 28.3333 13.3333C27.4129 13.3333 26.6667 12.5871 26.6667 11.6666C26.6667 10.7461 27.4129 9.99995 28.3333 9.99995C29.2538 9.99995 30 10.7461 30 11.6666Z" fill="black"/>
</svg>
