<svg width="40" height="40" viewBox="0 0 40 40" fill="none" xmlns="http://www.w3.org/2000/svg">
<path fill-rule="evenodd" clip-rule="evenodd" d="M6.66665 3.33325H33.3333C35.1743 3.33325 36.6667 4.82564 36.6667 6.66659V33.3333C36.6667 35.1742 35.1743 36.6666 33.3333 36.6666H6.66665C4.8257 36.6666 3.33331 35.1742 3.33331 33.3333V6.66659C3.33331 4.82564 4.8257 3.33325 6.66665 3.33325ZM6.66663 6.66654V33.3332H33.3333V6.66654H6.66663ZM21.6666 15C20.8037 15 19.892 15.2637 19.0869 15.7535L18.3333 15H16.6666V26.6666H20V20C20 19.0404 20.9899 18.3333 21.6666 18.3333H23.3333C24.01 18.3333 25 19.0404 25 20V26.6666H28.3333V20C28.3333 16.9119 25.6565 15 23.3333 15H21.6666ZM13.3333 13.3333C14.2538 13.3333 15 12.5871 15 11.6666C15 10.7462 14.2538 9.99996 13.3333 9.99996C12.4128 9.99996 11.6666 10.7462 11.6666 11.6666C11.6666 12.5871 12.4128 13.3333 13.3333 13.3333ZM11.6666 15V26.6666H15V15H11.6666Z" fill="black"/>
</svg>
